# xmcd
#
# Track frame offsets:
#	150
#	21346
#	40265
#	59074
#	80319
#	98466
#	117129
#	132025
#	149767
#
# Disc length: 2249 seconds
#
# Revision: 0
# Processed by: cddbd v1.5.2PL0 Copyright (c) Steve Scherf et al.
# Submitted via: EZCDAudioConverter 3.0.3.2
#
DISCID=7708c709
DTITLE=THIMOTHEY HERELLE - MA PLUS BELLE HISTOIRE
DYEAR=1900
DGENRE=
TTITLE0=MA PLUS BELLE HISTOIRE 
TTITLE1=DE GENERATION
TTITLE2=CAFE D'AMOUR
TTITLE3=SANS TOI JE SUIS LE SEUL
TTITLE4=LOUELLE
TTITLE5=TU N'ES PAS LA MAMAN
TTITLE6=FAIS PAS CA JOE
TTITLE7=CE SA LE ZOUK
TTITLE8=CE SA L'AMITIE
EXTD=
EXTT0=
EXTT1=
EXTT2=
EXTT3=
EXTT4=
EXTT5=
EXTT6=
EXTT7=
EXTT8=
PLAYORDER=
